<svg width="1280" height="720" xmlns="http://www.w3.org/2000/svg" xmlns:xlink="http://www.w3.org/1999/xlink" overflow="hidden"><defs><clipPath id="clip0"><rect x="0" y="0" width="1280" height="720"/></clipPath><clipPath id="clip1"><rect x="684" y="354" width="18" height="18"/></clipPath><clipPath id="clip2"><rect x="684" y="354" width="18" height="18"/></clipPath><clipPath id="clip3"><rect x="684" y="354" width="18" height="18"/></clipPath><clipPath id="clip4"><rect x="284" y="133" width="55" height="55"/></clipPath><clipPath id="clip5"><rect x="284" y="133" width="55" height="55"/></clipPath><clipPath id="clip6"><rect x="284" y="133" width="55" height="55"/></clipPath><clipPath id="clip7"><rect x="543" y="133" width="56" height="55"/></clipPath><clipPath id="clip8"><rect x="543" y="133" width="56" height="55"/></clipPath><clipPath id="clip9"><rect x="543" y="133" width="56" height="55"/></clipPath><clipPath id="clip10"><rect x="544" y="332" width="55" height="55"/></clipPath><clipPath id="clip11"><rect x="544" y="332" width="55" height="55"/></clipPath><clipPath id="clip12"><rect x="544" y="332" width="55" height="55"/></clipPath><clipPath id="clip13"><rect x="676" y="155" width="18" height="18"/></clipPath><clipPath id="clip14"><rect x="676" y="155" width="18" height="18"/></clipPath><clipPath id="clip15"><rect x="676" y="155" width="18" height="18"/></clipPath></defs><g clip-path="url(#clip0)"><rect x="0" y="0" width="1280" height="720" fill="#FFFFFF"/><rect x="79" y="91" width="199" height="140" stroke="#000000" stroke-width="4" stroke-miterlimit="8" fill="none"/><rect x="339" y="91" width="199" height="140" stroke="#000000" stroke-width="4" stroke-miterlimit="8" fill="none"/><rect x="599" y="91" width="199" height="140" stroke="#000000" stroke-width="4" stroke-miterlimit="8" fill="none"/><rect x="339" y="290" width="199" height="140" stroke="#000000" stroke-width="4" stroke-miterlimit="8" fill="none"/><rect x="599" y="290" width="199" height="140" stroke="#000000" stroke-width="4" stroke-miterlimit="8" fill="none"/><text font-family="Open Sans,Open Sans_MSFontService,sans-serif" font-weight="400" font-size="24" transform="translate(140.451 76)">Stimulus<tspan font-size="24" x="208.631" y="0">First estimate </tspan><tspan font-family="Cambria Math,Cambria Math_MSFontService,sans-serif" font-size="24" x="366.298" y="0">(</tspan><tspan font-family="Cambria Math,Cambria Math_MSFontService,sans-serif" font-size="24" x="376.298" y="0">ğ¸</tspan><tspan font-family="Cambria Math,Cambria Math_MSFontService,sans-serif" font-size="18" x="389.458" y="5">1</tspan><tspan font-family="Cambria Math,Cambria Math_MSFontService,sans-serif" font-size="24" x="400.618" y="0">)</tspan><tspan font-size="24" x="451.887" y="0">Second estimate </tspan><tspan font-family="Cambria Math,Cambria Math_MSFontService,sans-serif" font-size="24" x="643.387" y="0">(</tspan><tspan font-family="Cambria Math,Cambria Math_MSFontService,sans-serif" font-size="24" x="653.387" y="0">ğ¸</tspan><tspan font-family="Cambria Math,Cambria Math_MSFontService,sans-serif" font-size="18" x="667.1" y="5">2</tspan><tspan font-family="Cambria Math,Cambria Math_MSFontService,sans-serif" font-size="24" x="678.26" y="0">)</tspan><tspan font-size="24" x="245.374" y="383">(up to) 30s</tspan><tspan font-size="24" x="505.374" y="383">(up to) 30s</tspan><tspan font-size="24" x="245.374" y="189">(up to) 30s</tspan><tspan font-size="24" x="505.374" y="190">(up to) 30s</tspan><tspan font-size="24" x="29.223" y="189">6s</tspan></text><rect x="375" y="378" width="53" height="18" fill="#3C53FE"/><rect x="427" y="378" width="77" height="18" fill="#E83D20"/><rect x="425.5" y="376.5" width="6" height="22" stroke="#000000" stroke-width="1.33333" stroke-miterlimit="8" fill="#FFFFFF"/><text fill="#3C53FE" font-family="Open Sans,Open Sans_MSFontService,sans-serif" font-weight="700" font-size="16" transform="translate(344.506 375)">DEM<tspan fill="#000000" font-weight="400" font-size="19" x="5.08115" y="19">40</tspan><tspan fill="#E83D20" font-size="16" x="159.16" y="0">REP</tspan><tspan fill="#000000" font-weight="400" font-size="19" x="164.351" y="18">60</tspan><tspan fill="#000000" font-weight="400" font-size="15" x="1.71063" y="43">Confidence</tspan><tspan fill="#000000" font-weight="400" font-size="16" x="78.8773" y="43">:</tspan></text><rect x="485.5" y="402.5" width="48" height="22" stroke="#000000" stroke-width="1.33333" stroke-miterlimit="8" fill="#FFFFFF"/><text font-family="Open Sans,Open Sans_MSFontService,sans-serif" font-weight="400" font-size="13" transform="translate(494.699 418)">High</text><rect x="435.5" y="402.5" width="46" height="22" stroke="#000000" stroke-width="1.33333" stroke-miterlimit="8" fill="#D0CECE"/><text font-family="Open Sans,Open Sans_MSFontService,sans-serif" font-weight="400" font-size="13" transform="translate(445.355 418)">Low</text><rect x="636" y="338" width="53" height="18" fill="#3C53FE"/><rect x="688" y="338" width="77" height="18" fill="#E83D20"/><rect x="685.5" y="336.5" width="6" height="22" stroke="#000000" stroke-width="1.33333" stroke-miterlimit="8" stroke-dasharray="1.33333 1.33333" fill="#FFFFFF"/><text fill="#3C53FE" font-family="Open Sans,Open Sans_MSFontService,sans-serif" font-weight="700" font-size="16" transform="translate(605.375 335)">DEM<tspan fill="#000000" font-weight="400" font-size="19" x="5.08118" y="19">45</tspan><tspan fill="#E83D20" font-size="16" x="159.16" y="0">REP</tspan><tspan fill="#000000" font-weight="400" font-size="19" x="163.904" y="18">55</tspan></text><rect x="635" y="371" width="64" height="18" fill="#3C53FE"/><rect x="700" y="371" width="64" height="18" fill="#E83D20"/><rect x="699.5" y="369.5" width="6" height="23" stroke="#000000" stroke-width="1.33333" stroke-miterlimit="8" fill="#FFFFFF"/><text font-family="Open Sans,Open Sans_MSFontService,sans-serif" font-weight="400" font-size="19" transform="translate(609.495 387)">52<tspan font-size="19" x="159.27" y="-1">48</tspan></text><rect x="695.5" y="336.5" width="6" height="22" stroke="#000000" stroke-width="1.33333" stroke-miterlimit="8" fill="#FFFFFF"/><text font-family="Open Sans,Open Sans_MSFontService,sans-serif" font-weight="400" font-size="16" transform="translate(632.422 311)">You <tspan font-family="Cambria Math,Cambria Math_MSFontService,sans-serif" font-size="16" x="32.6667" y="0">(</tspan><tspan font-family="Cambria Math,Cambria Math_MSFontService,sans-serif" font-size="16" x="39.3333" y="0">ğ¸</tspan><tspan font-family="Cambria Math,Cambria Math_MSFontService,sans-serif" font-size="12" x="48.1" y="4">1</tspan><tspan font-family="Cambria Math,Cambria Math_MSFontService,sans-serif" font-size="16" x="55.6" y="0">)</tspan></text><path d="M0 0 13.4028 13.8289" stroke="#000000" stroke-width="1.66667" stroke-miterlimit="8" fill="none" fill-rule="evenodd" transform="matrix(-1 0 0 1 711.403 318)"/><text font-family="Cambria Math,Cambria Math_MSFontService,sans-serif" font-weight="400" font-size="16" transform="translate(700.594 311)">(<tspan font-size="16" x="6.66669" y="0">ğ¸</tspan><tspan font-size="12" x="15.8067" y="3">2</tspan><tspan font-size="16" x="23.3067" y="0">)</tspan><tspan font-family="Open Sans,Open Sans_MSFontService,sans-serif" font-size="16" x="-64.2057" y="112">Peer </tspan><tspan font-size="16" x="-25.8724" y="112">(</tspan><tspan font-size="16" x="-19.2057" y="112">ğ‘‹</tspan><tspan font-size="16" x="-8.47913" y="112">)</tspan></text><path d="M709.5 417.5 709.5 417.5" stroke="#4472C4" stroke-width="0.666667" stroke-miterlimit="8" fill="none" fill-rule="evenodd"/><path d="M688.44 331.484 675 318" stroke="#000000" stroke-width="1.66667" stroke-miterlimit="8" fill="none" fill-rule="evenodd"/><rect x="719.5" y="403.5" width="49" height="22" stroke="#000000" stroke-width="1.33333" stroke-miterlimit="8" fill="#FFFFFF"/><text font-family="Open Sans,Open Sans_MSFontService,sans-serif" font-weight="400" font-size="13" transform="translate(729.53 419)">High</text><path d="M0 0 13.4028 13.8289" stroke="#000000" stroke-width="1.66667" stroke-miterlimit="8" fill="none" fill-rule="evenodd" transform="matrix(-1 0 0 1 700.403 395)"/><path d="M716.44 408.484 703 395" stroke="#000000" stroke-width="1.66667" stroke-miterlimit="8" fill="none" fill-rule="evenodd"/><g clip-path="url(#clip1)"><g clip-path="url(#clip2)"><g clip-path="url(#clip3)"><path d="M691.688 369.169C695.438 369.169 698.531 366.206 698.719 362.456L700.388 364.125C700.612 364.331 700.95 364.331 701.175 364.106 701.381 363.9 701.4 363.544 701.194 363.319L698.55 360.675C698.494 360.619 698.438 360.581 698.362 360.563 698.344 360.563 698.325 360.544 698.287 360.544L698.25 360.525 698.194 360.525 698.138 360.525 698.1 360.525C697.969 360.525 697.838 360.6 697.744 360.694L695.1 363.337C694.875 363.563 694.875 363.919 695.1 364.125 695.325 364.35 695.681 364.35 695.888 364.125L697.594 362.419C697.463 365.081 695.569 367.313 692.963 367.894 690.356 368.475 687.694 367.237 686.456 364.875 685.219 362.513 685.706 359.625 687.656 357.806 687.881 357.6 687.9 357.244 687.675 357.019 687.469 356.794 687.112 356.775 686.888 356.981 684.769 358.95 684.075 362.006 685.144 364.706 686.194 367.406 688.8 369.169 691.688 369.169Z" stroke="#0D0D0D" stroke-width="0.705883"/></g></g></g><g clip-path="url(#clip4)"><g clip-path="url(#clip5)"><g clip-path="url(#clip6)"><path d="M295.057 139.302 327.943 160.5 295.057 181.698Z"/></g></g></g><g clip-path="url(#clip7)"><g clip-path="url(#clip8)"><g clip-path="url(#clip9)"><path d="M11.0573 6.30208 43.9427 27.5 11.0573 48.6979Z" transform="matrix(1.01818 0 0 1 543 133)"/></g></g></g><g clip-path="url(#clip10)"><g clip-path="url(#clip11)"><g clip-path="url(#clip12)"><path d="M555.057 338.302 587.943 359.5 555.057 380.698Z"/></g></g></g><rect x="348.5" y="199.5" width="13" height="14" stroke="#000000" stroke-width="1.33333" stroke-miterlimit="8" fill="#FFFFFF"/><text font-family="Open Sans,Open Sans_MSFontService,sans-serif" font-weight="400" font-size="12" transform="translate(350.965 210)">1</text><rect x="384.5" y="199.5" width="13" height="14" stroke="#000000" stroke-width="1.33333" stroke-miterlimit="8" fill="#FFFFFF"/><text font-family="Open Sans,Open Sans_MSFontService,sans-serif" font-weight="400" font-size="12" transform="translate(387.077 210)">3</text><rect x="402.5" y="199.5" width="14" height="13" stroke="#000000" stroke-width="1.33333" stroke-miterlimit="8" fill="#FFFFFF"/><text font-family="Open Sans,Open Sans_MSFontService,sans-serif" font-weight="400" font-size="12" transform="translate(405.378 209)">4</text><rect x="365.5" y="199.5" width="14" height="14" stroke="#000000" stroke-width="1.33333" stroke-miterlimit="8" fill="#FFFFFF"/><text font-family="Open Sans,Open Sans_MSFontService,sans-serif" font-weight="400" font-size="12" transform="translate(368.821 210)">2</text><rect x="511.5" y="199.5" width="13" height="13" stroke="#000000" stroke-width="1.33333" stroke-miterlimit="8" fill="#FFFFFF"/><text font-family="Open Sans,Open Sans_MSFontService,sans-serif" font-weight="400" font-size="12" transform="translate(510.791 209)">10</text><rect x="438.5" y="199.5" width="14" height="13" stroke="#000000" stroke-width="1.33333" stroke-miterlimit="8" fill="#FFFFFF"/><text font-family="Open Sans,Open Sans_MSFontService,sans-serif" font-weight="400" font-size="12" transform="translate(441.773 209)">6</text><rect x="457.5" y="199.5" width="13" height="13" stroke="#000000" stroke-width="1.33333" stroke-miterlimit="8" fill="#92D050"/><text font-family="Open Sans,Open Sans_MSFontService,sans-serif" font-weight="700" font-size="12" transform="translate(460.144 209)">7</text><rect x="475.5" y="199.5" width="13" height="13" stroke="#000000" stroke-width="1.33333" stroke-miterlimit="8" fill="#FFFFFF"/><text font-family="Open Sans,Open Sans_MSFontService,sans-serif" font-weight="400" font-size="12" transform="translate(478.159 209)">8</text><rect x="493.5" y="199.5" width="13" height="13" stroke="#000000" stroke-width="1.33333" stroke-miterlimit="8" fill="#FFFFFF"/><text font-family="Open Sans,Open Sans_MSFontService,sans-serif" font-weight="400" font-size="12" transform="translate(496.13 209)">9</text><rect x="420.5" y="199.5" width="14" height="13" stroke="#000000" stroke-width="1.33333" stroke-miterlimit="8" fill="#FFFFFF"/><text font-family="Open Sans,Open Sans_MSFontService,sans-serif" font-weight="400" font-size="12" transform="translate(423.612 209)">5<tspan font-weight="700" font-size="15" x="-71.665" y="-17">How confident are you?</tspan></text><path d="M379 146 494.745 146" stroke="#181717" stroke-width="6" stroke-miterlimit="8" fill="none" fill-rule="evenodd"/><text font-family="Open Sans,Open Sans_MSFontService,sans-serif" font-weight="700" font-size="15" transform="translate(364.649 118)">Your estimate is:<tspan font-size="24" x="130.627" y="3">60</tspan></text><rect x="425.5" y="137.5" width="5" height="19" stroke="#000000" stroke-width="1.33333" stroke-miterlimit="8" fill="#FFFFFF"/><path d="M633 146 748.745 146" stroke="#181717" stroke-width="6" stroke-miterlimit="8" fill="none" fill-rule="evenodd"/><rect x="677.5" y="137.5" width="5" height="19" stroke="#000000" stroke-width="1.33333" stroke-miterlimit="8" stroke-dasharray="1.33333 1.33333" fill="#FFFFFF"/><text font-family="Open Sans,Open Sans_MSFontService,sans-serif" font-weight="400" font-size="16" transform="translate(605.936 113)">You <tspan font-family="Cambria Math,Cambria Math_MSFontService,sans-serif" font-size="16" x="32.6667" y="0">(</tspan><tspan font-family="Cambria Math,Cambria Math_MSFontService,sans-serif" font-size="16" x="39.3333" y="0">ğ¸</tspan><tspan font-family="Cambria Math,Cambria Math_MSFontService,sans-serif" font-size="12" x="48.1" y="4">1</tspan><tspan font-family="Cambria Math,Cambria Math_MSFontService,sans-serif" font-size="16" x="55.6" y="0">)</tspan></text><path d="M680.44 131.484 667 118" stroke="#000000" stroke-width="1.66667" stroke-miterlimit="8" fill="none" fill-rule="evenodd"/><rect x="690.5" y="137.5" width="5" height="19" stroke="#000000" stroke-width="1.33333" stroke-miterlimit="8" fill="#FFFFFF"/><g clip-path="url(#clip13)"><g clip-path="url(#clip14)"><g clip-path="url(#clip15)"><path d="M683.688 170.169C687.438 170.169 690.531 167.206 690.719 163.456L692.388 165.125C692.612 165.331 692.95 165.331 693.175 165.106 693.381 164.9 693.4 164.544 693.194 164.319L690.55 161.675C690.494 161.619 690.438 161.581 690.362 161.563 690.344 161.563 690.325 161.544 690.287 161.544L690.25 161.525 690.194 161.525 690.138 161.525 690.1 161.525C689.969 161.525 689.838 161.6 689.744 161.694L687.1 164.337C686.875 164.563 686.875 164.919 687.1 165.125 687.325 165.35 687.681 165.35 687.888 165.125L689.594 163.419C689.463 166.081 687.569 168.313 684.963 168.894 682.356 169.475 679.694 168.238 678.456 165.875 677.219 163.512 677.706 160.625 679.656 158.806 679.881 158.6 679.9 158.244 679.675 158.019 679.469 157.794 679.112 157.775 678.888 157.981 676.769 159.95 676.075 163.006 677.144 165.706 678.194 168.406 680.8 170.169 683.688 170.169Z" stroke="#0D0D0D" stroke-width="0.705883"/></g></g></g><text font-family="Cambria Math,Cambria Math_MSFontService,sans-serif" font-weight="400" font-size="16" transform="translate(678.722 108)">(<tspan font-size="16" x="6.66669" y="0">ğ¸</tspan><tspan font-size="12" x="15.8067" y="3">2</tspan><tspan font-size="16" x="23.3067" y="0">)</tspan></text><rect x="704.5" y="140.5" width="10" height="11" stroke="#000000" stroke-width="1.33333" stroke-miterlimit="8" fill="#E83D20"/><path d="M692.26 132.152 692.291 113.114" stroke="#000000" stroke-width="1.66667" stroke-miterlimit="8" fill="none" fill-rule="evenodd"/><path d="M723.44 170.484 710 157" stroke="#000000" stroke-width="1.66667" stroke-miterlimit="8" fill="none" fill-rule="evenodd"/><rect x="612.5" y="178.5" width="14" height="14" stroke="#000000" stroke-width="1.33333" stroke-miterlimit="8" fill="#FFFFFF"/><text font-family="Open Sans,Open Sans_MSFontService,sans-serif" font-weight="400" font-size="12" transform="translate(615.532 189)">1</text><rect x="648.5" y="178.5" width="14" height="14" stroke="#000000" stroke-width="1.33333" stroke-miterlimit="8" fill="#FFFFFF"/><text font-family="Open Sans,Open Sans_MSFontService,sans-serif" font-weight="400" font-size="12" transform="translate(651.644 189)">3</text><rect x="667.5" y="178.5" width="13" height="14" stroke="#000000" stroke-width="1.33333" stroke-miterlimit="8" fill="#FFFFFF"/><text font-family="Open Sans,Open Sans_MSFontService,sans-serif" font-weight="400" font-size="12" transform="translate(669.946 189)">4</text><rect x="630.5" y="178.5" width="14" height="14" stroke="#000000" stroke-width="1.33333" stroke-miterlimit="8" fill="#FFFFFF"/><text font-family="Open Sans,Open Sans_MSFontService,sans-serif" font-weight="400" font-size="12" transform="translate(633.388 189)">2</text><rect x="775.5" y="178.5" width="14" height="14" stroke="#000000" stroke-width="1.33333" stroke-miterlimit="8" fill="#FFFFFF"/><text font-family="Open Sans,Open Sans_MSFontService,sans-serif" font-weight="400" font-size="12" transform="translate(775.358 189)">10</text><rect x="703.5" y="178.5" width="14" height="14" stroke="#000000" stroke-width="1.33333" stroke-miterlimit="8" fill="#FFFFFF"/><text font-family="Open Sans,Open Sans_MSFontService,sans-serif" font-weight="400" font-size="12" transform="translate(706.341 189)">6</text><rect x="721.5" y="178.5" width="14" height="14" stroke="#000000" stroke-width="1.33333" stroke-miterlimit="8" fill="#FFFFFF"/><text font-family="Open Sans,Open Sans_MSFontService,sans-serif" font-weight="400" font-size="12" transform="translate(724.711 189)">7</text><rect x="739.5" y="178.5" width="14" height="14" stroke="#000000" stroke-width="1.33333" stroke-miterlimit="8" fill="#FFFFFF"/><text font-family="Open Sans,Open Sans_MSFontService,sans-serif" font-weight="400" font-size="12" transform="translate(742.727 189)">8</text><rect x="757.5" y="178.5" width="14" height="14" stroke="#000000" stroke-width="1.33333" stroke-miterlimit="8" fill="#E83D20"/><text fill="#FFFFFF" font-family="Open Sans,Open Sans_MSFontService,sans-serif" font-weight="700" font-size="12" transform="translate(760.698 189)">9</text><rect x="685.5" y="178.5" width="13" height="14" stroke="#000000" stroke-width="1.33333" stroke-miterlimit="8" fill="#FFFFFF"/><text font-family="Open Sans,Open Sans_MSFontService,sans-serif" font-weight="400" font-size="12" transform="translate(688.179 189)">5</text><path d="M606 175.5C606 173.015 608.015 171 610.5 171L789.5 171C791.985 171 794 173.015 794 175.5L794 193.5C794 195.985 791.985 198 789.5 198L610.5 198C608.015 198 606 195.985 606 193.5Z" stroke="#181717" stroke-width="2" stroke-miterlimit="8" fill="none" fill-rule="evenodd"/><text font-family="Open Sans,Open Sans_MSFontService,sans-serif" font-weight="400" font-size="16" transform="translate(719.165 116)">Peer <tspan font-family="Cambria Math,Cambria Math_MSFontService,sans-serif" font-size="16" x="38.3333" y="0">(</tspan><tspan font-family="Cambria Math,Cambria Math_MSFontService,sans-serif" font-size="16" x="45" y="0">ğ‘‹</tspan><tspan font-family="Cambria Math,Cambria Math_MSFontService,sans-serif" font-size="16" x="55.7267" y="0">)</tspan></text></g></svg>